<?xml version="1.0" encoding="utf-8"?>
<!-- Generator: Adobe Illustrator 15.1.0, SVG Export Plug-In . SVG Version: 6.00 Build 0)  -->
<!DOCTYPE svg PUBLIC "-//W3C//DTD SVG 1.1//EN" "http://www.w3.org/Graphics/SVG/1.1/DTD/svg11.dtd">
<svg version="1.1" xmlns="http://www.w3.org/2000/svg" xmlns:xlink="http://www.w3.org/1999/xlink" x="0px" y="0px" width="500px"
	 height="500px" viewBox="0 0 500 500" enable-background="new 0 0 500 500" xml:space="preserve">
<g id="Hintergrund">
</g>
<g id="Hilfslinien_anzeigen">
</g>
<g id="Vordergrund">
	<path fill-rule="evenodd" clip-rule="evenodd" fill="#D3BF00" d="M87.013,249.988c0-90,72.957-162.957,162.957-162.957
		s162.957,72.957,162.957,162.957S339.97,412.945,249.97,412.945S87.013,339.988,87.013,249.988z M8.357,193.592
		c6.216-26.736,16.755-51.814,30.842-74.457c22.317,18.046,55.116,16.694,75.864-4.054s22.1-53.547,4.054-75.865
		c22.609-14.065,47.647-24.595,74.34-30.814c3.011,28.552,27.163,50.8,56.513,50.8s53.503-22.248,56.514-50.8
		c26.793,6.243,51.918,16.828,74.594,30.973c-18.029,22.318-16.673,55.104,4.07,75.848c20.711,20.711,53.428,22.097,75.744,4.155
		c14.057,22.652,24.566,47.736,30.752,74.477c-28.413,3.144-50.51,27.232-50.51,56.484c0,29.196,22.016,53.25,50.352,56.468
		c-6.25,26.664-16.799,51.673-30.88,74.252c-22.31-17.719-54.849-16.264-75.478,4.365c-20.605,20.606-22.078,53.1-4.422,75.408
		c-22.608,14.049-47.644,24.562-74.333,30.768c-3.249-28.301-27.285-50.278-56.456-50.277c-29.161,0-53.191,21.965-56.453,50.253
		c-26.686-6.217-51.719-16.741-74.322-30.801c17.781-22.312,16.347-54.902-4.305-75.553c-20.659-20.658-53.266-22.086-75.577-4.284
		C25.175,358.322,14.63,333.275,8.4,306.57c28.433-3.125,50.553-27.224,50.552-56.488C58.952,220.804,36.81,196.697,8.357,193.592z"
		/>
</g>
</svg>
